# xmcd
#
# Track frame offsets: 
#        183
#        18438
#        38128
#        59845
#        76853
#        95910
#        119703
#        139933
#        163053
#        180498
#        202668
#
# Disc length: 3098 seconds
#
# Revision: 0
# Processed by: cddbd v1.5.2PL0 Copyright (c) Steve Scherf et al.
# Submitted via: ExactAudioCopy v0.99pb4
#
DISCID=980c180b
DTITLE=Chris Youlden and The Big Picture - Matico
DYEAR=1993
DGENRE=Blues
TTITLE0=Down In Matico
TTITLE1=Who Needs Enemies
TTITLE2=Just A Dream
TTITLE3=Can't Get Enough
TTITLE4=Give It Up
TTITLE5=Killing Time
TTITLE6=Out Of Sight Out Of Mind
TTITLE7=The Good Times
TTITLE8=Talking Tough
TTITLE9=Don't Cast The First Stone
TTITLE10=Our Good Thing Is Through
EXTD=
EXTT0=
EXTT1=
EXTT2=
EXTT3=
EXTT4=
EXTT5=
EXTT6=
EXTT7=
EXTT8=
EXTT9=
EXTT10=
PLAYORDER=
